<svg width="30" height="30" viewBox="0 0 30 30" fill="none" xmlns="http://www.w3.org/2000/svg">
<path d="M18.5363 15.0325L20.3038 16.8L15 22.1037L9.69629 16.8L11.465 15.0325L13.75 17.3175V7.89624H16.25V17.3175L18.5363 15.0325Z" fill="#355E3B"/>
<path fill-rule="evenodd" clip-rule="evenodd" d="M24.7225 24.7225C19.3525 30.0925 10.6475 30.0925 5.2775 24.7225C-0.0924999 19.3525 -0.0924999 10.6475 5.2775 5.2775C10.6475 -0.0924999 19.3525 -0.0924999 24.7225 5.2775C30.0925 10.6475 30.0925 19.3525 24.7225 24.7225ZM22.955 22.955C21.9103 23.9997 20.6701 24.8283 19.3052 25.3937C17.9403 25.9591 16.4774 26.2501 15 26.2501C13.5226 26.2501 12.0597 25.9591 10.6948 25.3937C9.32986 24.8283 8.08966 23.9997 7.045 22.955C6.00033 21.9103 5.17166 20.6701 4.60629 19.3052C4.04092 17.9403 3.74993 16.4774 3.74993 15C3.74993 13.5226 4.04092 12.0597 4.60629 10.6948C5.17166 9.32986 6.00033 8.08967 7.045 7.045C9.1548 4.9352 12.0163 3.74993 15 3.74993C17.9837 3.74993 20.8452 4.9352 22.955 7.045C25.0648 9.1548 26.2501 12.0163 26.2501 15C26.2501 17.9837 25.0648 20.8452 22.955 22.955Z" fill="#355E3B"/>
</svg>
