<svg width="200" height="200" viewBox="0 0 137 137" fill="none" xmlns="http://www.w3.org/2000/svg">
<path d="M27.4308 92L69 20L110.569 92H27.4308Z" stroke="#E7AF5A" stroke-width="2"/>
<path d="M27.1295 44.3013L110.268 44.3013L68.6987 116.301L27.1295 44.3013Z" stroke="#E7AF5A" stroke-width="2"/>
<path d="M69.72 85.64C66.8667 85.64 64.3867 85.08 62.28 83.96C60.1733 82.8133 58.5467 81.2 57.4 79.12C56.28 77.0133 55.72 74.5467 55.72 71.72C55.72 69.5867 56.08 67.6133 56.8 65.8C57.52 63.9867 58.52 62.4 59.8 61.04C61.1067 59.68 62.6267 58.6267 64.36 57.88C66.0933 57.1333 67.9733 56.76 70 56.76C71.28 56.76 72.5733 56.88 73.88 57.12C75.1867 57.3333 76.4133 57.6533 77.56 58.08C78.7067 58.48 79.6533 58.9467 80.4 59.48L77.52 64.28H76.8L71.96 58.08H76.04L76.2 61.64C75.4533 60.7867 74.56 60.16 73.52 59.76C72.5067 59.36 71.2933 59.16 69.88 59.16C68.0933 59.16 66.5067 59.6533 65.12 60.64C63.7333 61.6267 62.64 63 61.84 64.76C61.0667 66.4933 60.68 68.4933 60.68 70.76C60.68 73.16 61.0933 75.28 61.92 77.12C62.7467 78.96 63.8933 80.4 65.36 81.44C66.8267 82.4533 68.5333 82.96 70.48 82.96C72.6933 82.96 74.4133 82.5067 75.64 81.6C76.8667 80.6667 77.5467 79.3333 77.68 77.6L79.12 78.4C78.6933 80.7733 77.68 82.5733 76.08 83.8C74.5067 85.0267 72.3867 85.64 69.72 85.64ZM80.2 85.64L76.16 82.44V74.96L72.68 72.36V71.64H83.32V72.36L80.72 74.72V85.64H80.2Z" fill="#023F1E"/>
</svg>
