<svg width="500" height="500" viewBox="0 0 166 166" fill="none" xmlns="http://www.w3.org/2000/svg">
<path d="M39.1731 135.161L100.839 28.3538L162.504 135.161H39.1731Z" stroke="#F4F1DE" stroke-width="5"/>
<path d="M38.732 64.3975L162.063 64.3975L100.397 171.205L38.732 64.3975Z" stroke="#F4F1DE" stroke-width="5"/>
<path d="M102.152 129.024C97.5867 129.024 93.6187 128.128 90.248 126.336C86.8773 124.501 84.2747 121.92 82.44 118.592C80.648 115.221 79.752 111.275 79.752 106.752C79.752 103.339 80.328 100.181 81.48 97.28C82.632 94.3787 84.232 91.84 86.28 89.664C88.3707 87.488 90.8027 85.8027 93.576 84.608C96.3493 83.4133 99.3573 82.816 102.6 82.816C104.648 82.816 106.717 83.008 108.808 83.392C110.899 83.7333 112.861 84.2453 114.696 84.928C116.531 85.568 118.045 86.3147 119.24 87.168L114.632 94.848H113.48L105.736 84.928H112.264L112.52 90.624C111.325 89.2587 109.896 88.256 108.232 87.616C106.611 86.976 104.669 86.656 102.408 86.656C99.5493 86.656 97.0107 87.4453 94.792 89.024C92.5733 90.6027 90.824 92.8 89.544 95.616C88.3067 98.3893 87.688 101.589 87.688 105.216C87.688 109.056 88.3493 112.448 89.672 115.392C90.9947 118.336 92.8293 120.64 95.176 122.304C97.5227 123.925 100.253 124.736 103.368 124.736C106.909 124.736 109.661 124.011 111.624 122.56C113.587 121.067 114.675 118.933 114.888 116.16L117.192 117.44C116.509 121.237 114.888 124.117 112.328 126.08C109.811 128.043 106.419 129.024 102.152 129.024ZM118.92 129.024L112.456 123.904V111.936L106.888 107.776V106.624H123.912V107.776L119.752 111.552V129.024H118.92Z" fill="#355E3B"/>
</svg>
