<svg width="61" height="68" viewBox="0 0 61 68" fill="none" xmlns="http://www.w3.org/2000/svg">
<path d="M31.208 51.48C28.584 51.48 26.168 51.064 23.96 50.232C21.784 49.368 19.88 48.168 18.248 46.632C16.616 45.064 15.352 43.224 14.456 41.112C13.56 39 13.112 36.696 13.112 34.2C13.112 31.704 13.56 29.4 14.456 27.288C15.352 25.176 16.616 23.352 18.248 21.816C19.912 20.248 21.848 19.048 24.056 18.216C26.264 17.352 28.68 16.92 31.304 16.92C34.152 16.92 36.712 17.384 38.984 18.312C41.288 19.24 43.224 20.6 44.792 22.392L40.856 26.232C39.544 24.92 38.12 23.96 36.584 23.352C35.08 22.712 33.416 22.392 31.592 22.392C29.832 22.392 28.2 22.68 26.696 23.256C25.192 23.832 23.896 24.648 22.808 25.704C21.72 26.76 20.872 28.008 20.264 29.448C19.688 30.888 19.4 32.472 19.4 34.2C19.4 35.896 19.688 37.464 20.264 38.904C20.872 40.344 21.72 41.608 22.808 42.696C23.896 43.752 25.176 44.568 26.648 45.144C28.12 45.72 29.752 46.008 31.544 46.008C33.208 46.008 34.808 45.752 36.344 45.24C37.912 44.696 39.4 43.8 40.808 42.552L44.36 47.208C42.6 48.616 40.552 49.688 38.216 50.424C35.912 51.128 33.576 51.48 31.208 51.48ZM38.456 46.392V33.816H44.36V47.208L38.456 46.392Z" fill="#BCAB42"/>
<path d="M59 46.7987V21.1979C58.9984 20.0773 58.7055 18.9766 58.1504 18.0047C57.5952 17.0328 56.797 16.2234 55.8348 15.6567L33.6652 2.85624C32.7037 2.2954 31.6118 2 30.5 2C29.3882 2 28.2963 2.2954 27.3348 2.85624L5.16518 15.6567C4.2007 16.2208 3.40066 17.0296 2.84517 18.0021C2.28967 18.9746 1.99823 20.0767 2.00001 21.1979V46.8055C2.00217 47.9255 2.29532 49.0255 2.85045 49.9968C3.40558 50.968 4.20346 51.7769 5.16518 52.3433L27.3348 65.1438C28.2963 65.7046 29.3882 66 30.5 66C31.6118 66 32.7037 65.7046 33.6652 65.1438L55.8348 52.3433C56.7998 51.7789 57.6001 50.9695 58.1557 49.9964C58.7112 49.0233 59.0024 47.9206 59 46.7987Z" stroke="#518A93" stroke-width="3" stroke-linecap="round" stroke-linejoin="round"/>
</svg>
