<svg width="63" height="70" viewBox="0 0 63 70" fill="none" xmlns="http://www.w3.org/2000/svg">
<path d="M32.208 52.384C29.616 52.384 27.232 51.968 25.056 51.136C22.88 50.272 20.992 49.072 19.392 47.536C17.792 45.968 16.544 44.144 15.648 42.064C14.752 39.984 14.304 37.696 14.304 35.2C14.304 32.704 14.752 30.416 15.648 28.336C16.544 26.256 17.792 24.448 19.392 22.912C21.024 21.344 22.928 20.144 25.104 19.312C27.28 18.448 29.68 18.016 32.304 18.016C34.96 18.016 37.392 18.448 39.6 19.312C41.808 20.176 43.68 21.472 45.216 23.2L42.24 26.176C40.864 24.832 39.36 23.856 37.728 23.248C36.128 22.608 34.384 22.288 32.496 22.288C30.576 22.288 28.784 22.608 27.12 23.248C25.488 23.888 24.064 24.784 22.848 25.936C21.664 27.088 20.736 28.464 20.064 30.064C19.424 31.632 19.104 33.344 19.104 35.2C19.104 37.024 19.424 38.736 20.064 40.336C20.736 41.904 21.664 43.28 22.848 44.464C24.064 45.616 25.488 46.512 27.12 47.152C28.752 47.792 30.528 48.112 32.448 48.112C34.24 48.112 35.952 47.84 37.584 47.296C39.248 46.72 40.784 45.776 42.192 44.464L44.928 48.112C43.264 49.52 41.312 50.592 39.072 51.328C36.864 52.032 34.576 52.384 32.208 52.384ZM40.32 47.488V35.008H44.928V48.112L40.32 47.488Z" fill="#BCAB42"/>
<path d="M60 47.7987V22.1979C59.9984 21.0773 59.7055 19.9766 59.1504 19.0047C58.5952 18.0328 57.797 17.2234 56.8348 16.6567L34.6652 3.85624C33.7037 3.2954 32.6118 3 31.5 3C30.3882 3 29.2963 3.2954 28.3348 3.85624L6.16518 16.6567C5.2007 17.2208 4.40066 18.0296 3.84517 19.0021C3.28967 19.9746 2.99823 21.0767 3.00001 22.1979V47.8055C3.00217 48.9255 3.29532 50.0255 3.85045 50.9968C4.40558 51.968 5.20346 52.7769 6.16518 53.3433L28.3348 66.1438C29.2963 66.7046 30.3882 67 31.5 67C32.6118 67 33.7037 66.7046 34.6652 66.1438L56.8348 53.3433C57.7998 52.7789 58.6001 51.9695 59.1557 50.9964C59.7112 50.0233 60.0024 48.9206 60 47.7987Z" stroke="#518A93" stroke-width="4.5" stroke-linecap="round" stroke-linejoin="round"/>
</svg>
