<svg width="63" height="70" viewBox="0 0 63 70" fill="none" xmlns="http://www.w3.org/2000/svg">
<path d="M32.84 49.32C30.68 49.32 28.6933 48.9733 26.88 48.28C25.0667 47.56 23.4933 46.56 22.16 45.28C20.8267 43.9733 19.7867 42.4533 19.04 40.72C18.2933 38.9867 17.92 37.08 17.92 35C17.92 32.92 18.2933 31.0133 19.04 29.28C19.7867 27.5467 20.8267 26.04 22.16 24.76C23.52 23.4533 25.1067 22.4533 26.92 21.76C28.7333 21.04 30.7333 20.68 32.92 20.68C35.1333 20.68 37.16 21.04 39 21.76C40.84 22.48 42.4 23.56 43.68 25L41.2 27.48C40.0533 26.36 38.8 25.5467 37.44 25.04C36.1067 24.5067 34.6533 24.24 33.08 24.24C31.48 24.24 29.9867 24.5067 28.6 25.04C27.24 25.5733 26.0533 26.32 25.04 27.28C24.0533 28.24 23.28 29.3867 22.72 30.72C22.1867 32.0267 21.92 33.4533 21.92 35C21.92 36.52 22.1867 37.9467 22.72 39.28C23.28 40.5867 24.0533 41.7333 25.04 42.72C26.0533 43.68 27.24 44.4267 28.6 44.96C29.96 45.4933 31.44 45.76 33.04 45.76C34.5333 45.76 35.96 45.5333 37.32 45.08C38.7067 44.6 39.9867 43.8133 41.16 42.72L43.44 45.76C42.0533 46.9333 40.4267 47.8267 38.56 48.44C36.72 49.0267 34.8133 49.32 32.84 49.32ZM39.6 45.24V34.84H43.44V45.76L39.6 45.24Z" fill="#BCAB42"/>
<path d="M60 47.7987V22.1979C59.9984 21.0773 59.7055 19.9766 59.1504 19.0047C58.5952 18.0328 57.797 17.2234 56.8348 16.6567L34.6652 3.85624C33.7037 3.2954 32.6118 3 31.5 3C30.3882 3 29.2963 3.2954 28.3348 3.85624L6.16518 16.6567C5.2007 17.2208 4.40066 18.0296 3.84517 19.0021C3.28967 19.9746 2.99823 21.0767 3.00001 22.1979V47.8055C3.00217 48.9255 3.29532 50.0255 3.85045 50.9968C4.40558 51.968 5.20346 52.7769 6.16518 53.3433L28.3348 66.1438C29.2963 66.7046 30.3882 67 31.5 67C32.6118 67 33.7037 66.7046 34.6652 66.1438L56.8348 53.3433C57.7998 52.7789 58.6001 51.9695 59.1557 50.9964C59.7112 50.0233 60.0024 48.9206 60 47.7987Z" stroke="#518A93" stroke-width="4.5" stroke-linecap="round" stroke-linejoin="round"/>
</svg>
